<svg xmlns="http://www.w3.org/2000/svg" width="533" height="450"><path d="M7.813 1.934v.082c.05-.02.104-.035.154-.055-.052-.009-.1-.02-.154-.027ZM167.53 6.109c-1.836.2-3.969.904-7.945 2.282-14.36 4.975-18.124 7.34-21.66 13.605-1.926 3.413-3.8 5.541-4.871 5.54-.958-.003-5.29-1.385-9.625-3.071-4.336-1.686-11.843-4.061-16.684-5.281-8.597-2.168-8.941-2.18-14.937-.489-7.182 2.025-16.239 7.623-29.868 18.461-.203.162-.76 2.4-1.242 4.977-.955 5.11-1.818 7-7.168 15.722-1.96 3.198-3.875 7.698-4.258 10-.869 5.241-5.858 12.194-14.957 20.848-9.43 8.97-11.94 10.91-17.91 13.84l-5.093 2.5.355 13c.195 7.15.518 13.273.719 13.605 1.142 1.894 13.118 4.843 22.425 5.524 5.775.422 10.726.825 11 .898.276.074 3.822.5 7.88.946 6.025.661 7.97 1.334 10.632 3.671 3.622 3.18 2.202 2.967 33.489 4.997l18.5 1.199 5.5 5.086c3.024 2.796 7.074 6.189 9 7.539 1.925 1.35 4.905 3.727 6.62 5.285l3.118 2.832-1.434 6.707c-1.717 8.02-1.379 38.209.473 42.211.636 1.375 1.624 4.367 2.2 6.648.577 2.293 3.054 6.59 5.534 9.602l4.488 5.453v12.465c0 7.764.537 14.327 1.418 17.398 2.755 9.596 3.437 17.045 3.579 39.09.05 7.787-.204 15.326-.563 16.754-.358 1.429-.094 11.081.586 21.45 1.085 16.548 1.033 20.304-.406 30.745a7566.287 7566.287 0 0 0-4.156 30.895c-1.385 10.45-2.785 20.687-3.114 22.75l-.375 2.355c.784 1.576 1.275 3.286 1.336 5.11.028.825-.125 1.645-.187 2.469-.41 2.293-1.101 4.495-1.993 6.644-.167.4-.377.78-.562 1.172h52.742c.765-2.12 1.502-4.251 2.188-6.398.012-.102.014-.198.027-.301.162-1.337.63-2.594 1.035-3.867.15-.747.274-1.344.324-1.344.065 0 .089-.004.153-.004.289-1.668.89-3.489 1.879-5.43a104.495 104.495 0 0 1 1.855-3.5c1.447-4.295 3.793-10.857 8.55-23.656 2.454-6.6 6.45-17.4 8.88-24 2.43-6.6 5.629-13.8 7.11-16 6.465-9.608 7.366-11.215 8.417-15 .61-2.2 1.42-6.025 1.797-8.5 1.964-12.905 6.637-27.175 13.926-42.5 4.185-8.8 8.525-18.025 9.644-20.5 4.915-10.868 8.52-17.446 9.91-18.09 7.61-3.52 24.61-5.025 37.247-3.293 3.944.54 4.8 1.116 6.703 4.5 1.2 2.134 2.792 3.883 3.543 3.883 3.57 0 13.85-7.668 20.175-15.05 6.337-7.397 7.246-8.059 15.657-11.419 3.746-1.497 6.14-2.423 7.816-2.644 2.795-.37 3.6 1.213 5.363 5.355 4.775 11.218 11.306 25.468 17.172 37.457 6.264 12.8 6.547 13.72 9.383 30.5 1.645 9.735 4.195 20.8 5.832 25.3l2.91 8-.765 18c-.66 15.533-1.136 19.166-3.485 26.5-1.816 5.673-2.902 11.662-3.261 18-.494 8.707-.94 10.357-5.344 19.75l-.309.657c.103.112.2.231.305.34.456 1.338 1.138 2.62 1.367 4.016.584 3.56-1.296 6.669-3.355 9.316-1.8 2.474-4.335 4.218-6.54 6.29-1.3 1.278-2.678 2.475-4.09 3.632h40.45c.208-2.192 1.04-4.672 2.703-7.328.725-1.16 1.5-2.278 2.266-3.41a50.646 50.646 0 0 0 1.859-3.235l-.453.004-.692-5.527c-.683-5.469-.643-5.576 3.497-10.067 3.386-3.674 4.076-5.058 3.625-7.242-1.186-5.736-.793-26.22.714-37.195 1.32-9.613 2.809-21.293 3.247-25.5.997-9.579 1.893-15.561 3.445-23 2.9-13.905 4.347-27.915 3.73-36.078-.491-6.501-.351-7.42 1.114-7.41 2.512.018 6.258 6.562 7.699 13.449 1.346 6.435 13.727 33.362 17.855 38.832 7.573 10.034 13.232 36.462 11.606 54.207-.504 5.5-.933 15.008-.953 21.129-.014 4.583-.125 7.614-.473 10.16.138.135.279.267.406.414 2.419 2.783 1.505 7.643.895 10.902-.289 2.616-1.113 5.115-1.79 7.645-.448 1.726-.6 3.508-.718 5.281-.07 1.322-.114 2.646-.145 3.969h33.883c-.44-2.874.331-6.366 3.004-10.004a34.93 34.93 0 0 1 2-2.5c-.695-2.26-.61-4.697-.035-11.531 2.447-29.083 2.575-26.5-1.813-35.965-5.148-11.105-7.979-24.296-8.796-41-.53-10.818-1.048-14.136-2.61-16.703-1.843-3.03-1.904-4.364-1.144-24.5.728-19.31.605-22.43-1.29-33.422-2.333-13.538-3.293-15.55-13.222-27.715-9.206-11.28-8.992-10.616-7.469-23.293 1.743-14.503 1.8-19.918.352-32.367-1.458-12.528-1.784-19.748-2.555-56.5-.433-20.67-1.124-31.532-2.637-41.492-1.931-12.725-2.329-13.972-6.964-21.848-3.949-6.709-4.921-9.263-4.95-13.004-.039-5.155-.579-6.31-6.672-14.203-5.604-7.26-12.505-13.023-20.312-16.965l-6.414-3.238-8.027 1.727c-4.417.949-9.252 2.357-10.743 3.128-1.49.772-6.668 1.825-11.504 2.34-13.257 1.413-23.207 3.635-29.039 6.489-4.497 2.2-6.58 2.566-14.636 2.566-11.162 0-26.15 2.856-33.153 6.32-11.438 5.66-19.346 8.516-25.465 9.196-3.575.397-8.636 1.8-11.246 3.117-4.41 2.225-23.519 6.974-52.254 12.984-9.126 1.91-14.934 2.503-24.261 2.48l-12.262-.027-11.988-5.199c-6.593-2.86-11.989-5.53-11.989-5.93 0-.4 2.268-2.456 5.04-4.57 2.998-2.286 5.244-4.864 5.543-6.36.275-1.382.908-4.035 1.406-5.894 1.3-4.862-1.393-10.295-5.739-11.574-1.787-.526-3.25-1.328-3.25-1.781 0-.453 1.516-2.156 3.368-3.782 2.476-2.174 3.513-4.046 3.922-7.09.305-2.275.335-4.705.07-5.398-1.138-2.964-8.907-7.889-14.477-9.176-2.788-.644-4.328-.949-6.164-.75zm216.75 432.27c.093.025.186.051.278.078.155.045.472.165.484.004.004-.06-.346-.077-.762-.082zm-248.004 4.844c-.102-.01-.206.013-.308.011.34.105.564.158.308-.011zm200.79 2.175c-.245.096-.492.185-.739.274.179.077.512-.031.817-.172l-.079-.102zm-324.016.84.05.5.07.012a4.14 4.14 0 0 0-.077-.508c-.014-.002-.029 0-.043-.004z" style="fill:#000;stroke-width:1"/></svg>